<?xml version="1.0" encoding="UTF-8"?>
<!-- Generator: Adobe Illustrator 24.2.0, SVG Export Plug-In . SVG Version: 6.00 Build 0)  -->
<svg xmlns="http://www.w3.org/2000/svg" xmlns:xlink="http://www.w3.org/1999/xlink" version="1.1" id="Layer_1" x="0px" y="0px" viewBox="0 0 548.92 508.05" style="enable-background:new 0 0 548.92 508.05;" xml:space="preserve">
<style type="text/css">
	.st0{fill-rule:evenodd;clip-rule:evenodd;fill:#fff;}
	.st1{enable-background:new    ;}
	.st2{fill:#fff;}
	.st3{fill-rule:evenodd;clip-rule:evenodd;fill:#E8E236;}
</style>
<g>
	<g>
		<path class="st0" d="M109.13,240.74c0,24.63-6.92,40.99-20.77,49.09c-9.89,5.93-27.96,8.9-54.21,8.9v80.64H0.71V182.75h48.01    c20.86,0,35.96,4.41,45.31,13.22C104.09,205.14,109.13,220.06,109.13,240.74L109.13,240.74z M75.69,240.74    c0-11.33-1.98-19.19-5.93-23.6c-3.96-4.41-11.51-6.61-22.65-6.61H34.15v60.41H47.1c11.15,0,18.7-2.2,22.65-6.61    C73.71,259.93,75.69,252.06,75.69,240.74L75.69,240.74z M190.31,262.04c-7.73-1.98-14.2-2.97-19.42-2.97    c-5.75,0-10.56,1.8-14.43,5.39c-3.87,3.6-5.8,8.27-5.8,14.02v100.87h-30.21V232.91h28.86v16.99l0,0    c7.82-13.13,21.49-19.69,40.99-19.69L190.31,262.04L190.31,262.04z M245.06,379.36h-30.21V232.91h30.21V379.36L245.06,379.36z     M428.73,379.36h-30.21V265.82c0-7.19-3.6-10.79-10.79-10.79c-4.5,0-10.88,3.15-19.15,9.44v114.89h-30.21V265.82    c0-7.19-3.51-10.79-10.52-10.79c-4.32,0-10.79,3.15-19.42,9.44v114.89h-30.21V232.91h28.6v14.56c7.55-6.47,12.59-10.43,15.1-11.87    c5.75-3.6,11.87-5.39,18.34-5.39c6.83,0,12.23,1.35,16.18,4.05c3.42,2.34,6.83,6.74,10.25,13.21    c11.87-11.51,23.11-17.26,33.71-17.26c18.88,0,28.32,10.25,28.32,30.75v118.4H428.73z M548.21,329.74    c-0.54,34.88-16.18,52.32-46.93,52.32c-31.29,0-46.93-18.16-46.93-54.48V284.7c0-36.32,15.64-54.48,46.93-54.48    s46.93,18.16,46.93,54.48v27.24h-63.65v21.04c0,16,5.57,24,16.72,24c11.15,0,16.72-9.08,16.72-27.24L548.21,329.74L548.21,329.74z     M518,286.86v-7.83c0-16-5.57-24-16.72-24c-11.15,0-16.72,8-16.72,24v7.82L518,286.86L518,286.86z"></path>
	</g>
	<g class="st1">
		<path class="st2" d="M8.47,445.54v-42.35h4.84v42.35H8.47z"></path>
	</g>
	<g class="st1">
		<path class="st2" d="M22.35,445.54v-42.35h6.33l14.69,36.33l-0.44-36.33h4.57v42.35h-6.05l-14.91-37.4l0.39,37.4H22.35z"></path>
		<path class="st2" d="M55.07,432.1h4.51v1.51c0,2.88,0.66,5.05,1.99,6.52c1.33,1.47,3.3,2.2,5.9,2.2c2.35,0,4.19-0.71,5.53-2.12    c1.34-1.41,2.01-3.36,2.01-5.83c0-1.98-0.41-3.51-1.22-4.58c-0.82-1.07-2.65-2.15-5.51-3.23c-0.68-0.26-1.63-0.61-2.86-1.07    c-3.43-1.25-5.5-2.18-6.22-2.8c-1.17-1.04-2.05-2.29-2.63-3.73c-0.58-1.44-0.87-3.11-0.87-5.02c0-3.69,1.02-6.57,3.05-8.65    c2.04-2.08,4.87-3.12,8.5-3.12c3.45,0,6.15,0.96,8.1,2.89c1.95,1.92,2.93,4.58,2.93,7.97c0,0.11-0.01,0.29-0.03,0.54    c-0.02,0.25-0.03,0.43-0.03,0.54h-4.35v-0.44c0-2.38-0.58-4.22-1.75-5.51c-1.16-1.29-2.81-1.94-4.94-1.94    c-2.2,0-3.93,0.62-5.2,1.86c-1.27,1.24-1.9,2.91-1.9,5.02c0,2,0.43,3.55,1.29,4.65c0.86,1.1,2.74,2.18,5.64,3.25    c0.35,0.13,0.86,0.32,1.54,0.58c4.42,1.63,7.06,2.85,7.92,3.66c1.04,0.97,1.82,2.15,2.32,3.55c0.5,1.39,0.76,3.06,0.76,5    c0,4.02-1.11,7.14-3.33,9.38c-2.22,2.24-5.31,3.36-9.27,3.36c-3.94,0-6.92-1.1-8.94-3.3c-2.02-2.2-3.02-5.44-3.02-9.71    c0-0.15,0.01-0.38,0.03-0.7C55.06,432.48,55.07,432.24,55.07,432.1z"></path>
		<path class="st2" d="M87.19,403.19h4.73v28.49c0,3.96,0.56,6.71,1.69,8.26c1.13,1.55,3.05,2.32,5.76,2.32    c2.75,0,4.78-0.85,6.08-2.56c1.3-1.71,1.95-4.38,1.95-8.03v-28.49h4.62v27.64c0,3.58-0.2,6.1-0.6,7.58    c-0.4,1.48-1.08,2.78-2.04,3.92c-1.16,1.38-2.58,2.42-4.28,3.12c-1.7,0.71-3.63,1.06-5.79,1.06c-2.22,0-4.21-0.38-5.97-1.14    s-3.15-1.85-4.18-3.26c-0.71-0.95-1.22-2.18-1.53-3.67c-0.3-1.49-0.45-4.03-0.45-7.6V403.19z"></path>
		<path class="st2" d="M120.54,445.54v-42.35h4.73v37.79h16.91v4.57H120.54z"></path>
		<path class="st2" d="M146.44,445.54l11.55-42.35h6.02l11.72,42.35h-4.79l-3.22-12.21h-13.42l-3.08,12.21H146.44z M155.38,429.04    h11.28l-5.64-22.19L155.38,429.04z"></path>
		<path class="st2" d="M185.02,445.54v-38.01h-10.81v-4.34h25.8v4.34h-10.15v38.01H185.02z"></path>
		<path class="st2" d="M204.65,424.37c0-7.88,1.07-13.55,3.2-17.01c2.13-3.46,5.59-5.18,10.37-5.18c4.82,0,8.28,1.71,10.4,5.13    c2.12,3.42,3.17,9.11,3.17,17.06s-1.05,13.65-3.16,17.06c-2.11,3.42-5.58,5.13-10.41,5.13c-4.76,0-8.21-1.74-10.36-5.23    C205.72,437.85,204.65,432.2,204.65,424.37z M209.57,424.37c0,6.8,0.65,11.5,1.94,14.11s3.53,3.9,6.71,3.9    c3.22,0,5.47-1.27,6.74-3.81c1.27-2.54,1.91-7.27,1.91-14.2c0-6.91-0.64-11.63-1.91-14.16s-3.52-3.79-6.74-3.79    c-3.19,0-5.42,1.3-6.71,3.89C210.22,412.89,209.57,417.58,209.57,424.37z"></path>
		<path class="st2" d="M239.46,445.54v-42.35h11.88c4.38,0,7.64,0.89,9.76,2.68c2.13,1.79,3.19,4.52,3.19,8.18    c0,2.84-0.64,5.11-1.92,6.81c-1.28,1.7-3.26,2.88-5.94,3.56c2.35,0.2,4.11,0.96,5.28,2.28c1.17,1.32,1.89,3.36,2.15,6.13    c0.09,1.03,0.19,2.45,0.3,4.26c0.29,4.62,1.04,7.43,2.23,8.44h-5.86c-0.59-0.97-0.96-3.27-1.13-6.9    c-0.09-1.82-0.18-3.25-0.27-4.32c-0.26-2.92-1.01-4.91-2.27-5.98c-1.26-1.07-3.51-1.61-6.75-1.61h-6.02v18.81H239.46z     M244.08,422.61h5.75c3.32,0,5.75-0.64,7.3-1.91c1.55-1.27,2.32-3.26,2.32-5.95c0-2.58-0.69-4.46-2.06-5.64    c-1.38-1.17-3.59-1.76-6.66-1.76h-6.66V422.61z"></path>
	</g>
	<g class="st1">
		<path class="st2" d="M275.39,432.1h4.51v1.51c0,2.88,0.67,5.05,1.99,6.52s3.3,2.2,5.9,2.2c2.35,0,4.19-0.71,5.53-2.12    c1.34-1.41,2.01-3.36,2.01-5.83c0-1.98-0.41-3.51-1.22-4.58c-0.82-1.07-2.65-2.15-5.51-3.23c-0.68-0.26-1.63-0.61-2.86-1.07    c-3.43-1.25-5.5-2.18-6.22-2.8c-1.17-1.04-2.05-2.29-2.63-3.73c-0.58-1.44-0.87-3.11-0.87-5.02c0-3.69,1.02-6.57,3.05-8.65    c2.04-2.08,4.87-3.12,8.5-3.12c3.45,0,6.15,0.96,8.1,2.89c1.95,1.92,2.93,4.58,2.93,7.97c0,0.11-0.01,0.29-0.03,0.54    c-0.02,0.25-0.03,0.43-0.03,0.54h-4.35v-0.44c0-2.38-0.58-4.22-1.75-5.51c-1.16-1.29-2.81-1.94-4.94-1.94    c-2.2,0-3.93,0.62-5.2,1.86c-1.27,1.24-1.9,2.91-1.9,5.02c0,2,0.43,3.55,1.29,4.65c0.86,1.1,2.74,2.18,5.64,3.25    c0.35,0.13,0.86,0.32,1.54,0.58c4.42,1.63,7.06,2.85,7.92,3.66c1.04,0.97,1.82,2.15,2.32,3.55s0.76,3.06,0.76,5    c0,4.02-1.11,7.14-3.33,9.38c-2.22,2.24-5.31,3.36-9.27,3.36c-3.94,0-6.92-1.1-8.94-3.3s-3.02-5.44-3.02-9.71    c0-0.15,0.01-0.38,0.03-0.7C275.38,432.48,275.39,432.24,275.39,432.1z"></path>
	</g>
	<g class="st1">
		<path class="st2" d="M325.74,445.54v-42.35h10.86c4.62,0,7.99,0.95,10.12,2.85c2.13,1.9,3.19,4.89,3.19,8.98    c0,4.2-1.11,7.37-3.33,9.52c-2.22,2.14-5.48,3.22-9.79,3.22h-6.33v17.79H325.74z M330.47,423.46h6.21c2.86,0,4.96-0.68,6.31-2.05    c1.35-1.37,2.02-3.52,2.02-6.45c0-2.7-0.68-4.65-2.04-5.86c-1.36-1.21-3.56-1.81-6.6-1.81h-5.91V423.46z"></path>
		<path class="st2" d="M364.76,445.54l-11.83-42.35h5.14l9.52,36.49l9.79-36.49h4.73l-11.66,42.35H364.76z"></path>
		<path class="st2" d="M394.9,445.54v-38.01h-10.81v-4.34h25.8v4.34h-10.15v38.01H394.9z"></path>
	</g>
	<g class="st1">
		<path class="st2" d="M418.21,445.54v-5.8h5v5.8H418.21z"></path>
	</g>
	<g class="st1">
		<path class="st2" d="M446.53,445.54v-42.35h4.73v37.79h16.91v4.57H446.53z"></path>
		<path class="st2" d="M475.46,445.54v-38.01h-10.81v-4.34h25.8v4.34H480.3v38.01H475.46z"></path>
		<path class="st2" d="M495.94,445.54v-42.35h11.99c4.8,0,8.34,1.6,10.62,4.81c2.27,3.21,3.41,8.2,3.41,14.96    c0,4.77-0.39,8.69-1.17,11.78c-0.78,3.09-2,5.54-3.67,7.36c-1.14,1.25-2.42,2.13-3.85,2.65c-1.43,0.52-3.56,0.78-6.38,0.78H495.94    z M500.67,441.5h6.13c1.98,0,3.51-0.2,4.61-0.6c1.09-0.4,1.95-1.05,2.57-1.95c0.99-1.45,1.71-3.25,2.14-5.42    c0.44-2.16,0.66-5.2,0.66-9.1c0-6.84-0.71-11.4-2.15-13.7c-1.43-2.29-4.1-3.44-8-3.44h-5.97V441.5z"></path>
	</g>
	<g class="st1">
		<path class="st2" d="M539.2,445.54v-5.8h5.01v5.8H539.2z"></path>
	</g>
	<g>
		<path class="st3" d="M239.98,20.21l-51.57,80.74h63.52l-73.47,103.31c-5.42-4.41-10.04-9.45-14.05-14.95l48.82-69.91H152    L228.18,0.12L239.98,20.21z"></path>
	</g>
	<g>
		<path class="st0" d="M237.79,47.07l4.12,5.85l21.31-5.1l-12.85-18.25L237.79,47.07L237.79,47.07z M273.55,97.84l0.97,1.37    c9.52,13.52,16.52,24.29,16.52,42.38c0,33.59-27.24,60.83-60.83,60.83c-11.24,0-21.77-3.06-30.81-8.38l-11.88,16.71    c12.41,7.68,27.03,12.12,42.69,12.12c44.87,0,81.27-36.39,81.27-81.27c0-20.79-7.27-35.59-18.45-51.46l-6.64-9.42L273.55,97.84    L273.55,97.84z M171.95,159.09c-1.66-5.54-2.57-11.42-2.57-17.5c0-1.86,0.09-3.71,0.25-5.52h-20.5c-0.12,1.83-0.19,3.67-0.19,5.52    c0,13.49,3.29,26.21,9.11,37.4L171.95,159.09z"></path>
	</g>
	<g>
		<polygon class="st3" points="311.41,46.23 236.4,73.46 214.43,65.54   "></polygon>
	</g>
	<g>
		<polygon class="st3" points="244.48,78.43 311.41,46.23 268.33,94.07   "></polygon>
	</g>
	<g>
		<polygon class="st0" points="236.4,73.46 246.09,92.64 244.48,78.43 311.41,46.23   "></polygon>
	</g>
	<g>
		<polygon class="st3" points="246.09,92.64 255.78,85.84 244.48,78.43   "></polygon>
	</g>
	<g class="st1">
		<path class="st2" d="M99.57,506.84c-2.4-3.92-4.13-7.59-5.22-11.01c-1.08-3.42-1.62-6.94-1.62-10.58c0-3.83,0.57-7.51,1.7-11.02    s2.85-6.93,5.14-10.25h2.51c-1.92,2.97-3.31,6.13-4.18,9.46c-0.87,3.33-1.31,7.22-1.31,11.68c0,3,0.16,5.61,0.47,7.83    c0.31,2.22,0.82,4.25,1.5,6.11c0.46,1.22,0.98,2.48,1.56,3.77c0.58,1.29,1.23,2.63,1.96,4.01H99.57z"></path>
	</g>
	<g class="st1">
		<path class="st2" d="M105.74,497.17v-33.18h8.51c3.62,0,6.26,0.74,7.93,2.23c1.67,1.49,2.5,3.83,2.5,7.03    c0,3.29-0.87,5.77-2.61,7.45c-1.74,1.68-4.29,2.52-7.67,2.52h-4.96v13.94H105.74z M109.45,479.87h4.87c2.24,0,3.89-0.54,4.94-1.61    c1.06-1.07,1.58-2.75,1.58-5.05c0-2.11-0.53-3.64-1.59-4.59c-1.06-0.95-2.79-1.42-5.17-1.42h-4.63V479.87z"></path>
		<path class="st2" d="M126.75,484.78c0-4.45,0.71-7.75,2.14-9.9c1.43-2.15,3.62-3.22,6.56-3.22c2.99,0,5.19,1.06,6.6,3.19    c1.41,2.13,2.12,5.44,2.12,9.93c0,4.5-0.7,7.8-2.11,9.9c-1.41,2.1-3.61,3.16-6.61,3.16c-3.02,0-5.22-1.04-6.61-3.13    S126.75,489.3,126.75,484.78z M130.45,484.78c0,3.71,0.38,6.32,1.14,7.83s2.05,2.27,3.86,2.27c1.78,0,3.06-0.77,3.82-2.32    c0.77-1.54,1.15-4.14,1.15-7.79c0-3.68-0.38-6.27-1.15-7.79c-0.77-1.52-2.04-2.27-3.82-2.27c-1.8,0-3.08,0.75-3.85,2.25    S130.45,481.07,130.45,484.78z"></path>
		<path class="st2" d="M148.72,497.17v-33.18h3.45v33.18H148.72z"></path>
		<path class="st2" d="M156.44,505.12v-3.15c0.36,0.16,0.72,0.27,1.08,0.34c0.36,0.07,0.72,0.11,1.08,0.11    c1.02,0,1.83-0.34,2.42-1.03c0.6-0.69,1.19-2.03,1.78-4.01l-7.28-25.01h3.75l5.3,19.99l5.47-19.99h3.56l-7.63,25.9    c-0.8,2.82-1.73,4.73-2.78,5.73c-1.05,1-2.54,1.51-4.46,1.51c-0.29,0-0.63-0.03-1.02-0.1S156.88,505.25,156.44,505.12z"></path>
		<path class="st2" d="M176.99,497.17v-24.8h3.21v3c0.67-1.18,1.56-2.07,2.66-2.67c1.1-0.6,2.39-0.9,3.87-0.9    c1.39,0,2.55,0.31,3.46,0.93c0.91,0.62,1.54,1.52,1.89,2.69c0.73-1.21,1.63-2.11,2.69-2.71c1.06-0.6,2.31-0.9,3.75-0.9    c2.01,0,3.55,0.52,4.62,1.57c1.07,1.05,1.61,2.56,1.61,4.52v19.28h-3.58v-17.13c0-2.01-0.26-3.37-0.78-4.08s-1.42-1.07-2.71-1.07    c-1.48,0-2.69,0.47-3.62,1.4c-0.93,0.93-1.4,2.14-1.4,3.62v17.26h-3.58v-17.26c0-1.82-0.28-3.12-0.83-3.88    c-0.55-0.76-1.47-1.14-2.75-1.14c-1.51,0-2.74,0.45-3.68,1.36c-0.95,0.9-1.42,2.07-1.42,3.49v17.43H176.99z"></path>
		<path class="st2" d="M221.24,488.79h3.4c-0.03,2.93-0.7,5.17-2.01,6.72c-1.31,1.55-3.19,2.33-5.61,2.33    c-2.67,0-4.64-1.04-5.91-3.12c-1.27-2.08-1.91-5.31-1.91-9.67c0-4.63,0.64-8.01,1.91-10.16c1.27-2.15,3.27-3.22,6-3.22    c2.57,0,4.48,0.91,5.74,2.74c1.26,1.82,1.89,4.6,1.89,8.34c0,0.59,0,1.03-0.01,1.34c-0.01,0.3-0.02,0.58-0.03,0.82l-11.91,0.02    v1.1c0,3.1,0.36,5.36,1.08,6.79s1.86,2.13,3.43,2.13c1.22,0,2.19-0.54,2.9-1.61c0.71-1.07,1.07-2.52,1.07-4.36V488.79z     M212.78,482.09h8.42v-0.67c0-2.28-0.33-4-1-5.16s-1.67-1.73-3.01-1.73c-1.49,0-2.6,0.62-3.33,1.86    C213.14,477.63,212.78,479.53,212.78,482.09z"></path>
		<path class="st2" d="M229.32,497.17v-24.8h3.21v4.05c0.5-1.45,1.26-2.58,2.27-3.4c1.01-0.82,2.17-1.23,3.48-1.23    c0.39,0,0.69,0.01,0.89,0.02c0.21,0.01,0.41,0.04,0.59,0.06v3.71c-0.19-0.1-0.39-0.18-0.61-0.23c-0.22-0.05-0.47-0.08-0.74-0.08    c-1.78,0-3.17,0.59-4.16,1.77s-1.49,2.82-1.49,4.93v15.19H229.32z"></path>
		<path class="st2" d="M272.61,497.17l-2.28-3.23c-1.03,1.24-2.25,2.18-3.66,2.83s-2.92,0.98-4.55,0.98c-2.7,0-4.9-0.9-6.59-2.7    c-1.69-1.8-2.54-4.14-2.54-7.01c0-2.08,0.52-3.91,1.57-5.47s2.73-3.04,5.04-4.42c-1.01-1.32-1.79-2.64-2.35-3.95    c-0.56-1.31-0.84-2.5-0.84-3.54c0-2,0.61-3.62,1.83-4.87c1.22-1.25,2.82-1.87,4.8-1.87c1.88,0,3.43,0.6,4.65,1.8    s1.83,2.73,1.83,4.6c0,1.62-0.46,3.13-1.38,4.51c-0.92,1.39-2.3,2.65-4.14,3.78l6.36,9.26c0.23-0.7,0.44-1.58,0.62-2.63    c0.19-1.05,0.33-2.22,0.43-3.51h3.53c-0.13,1.91-0.41,3.63-0.84,5.16c-0.43,1.53-0.99,2.81-1.68,3.85l4.46,6.44H272.61z     M268.51,491.22l-7.28-10.6c-1.54,1.01-2.67,2.1-3.4,3.28c-0.73,1.18-1.1,2.5-1.1,3.96c0,1.84,0.58,3.39,1.73,4.67    c1.16,1.27,2.59,1.91,4.3,1.91c1.09,0,2.14-0.28,3.13-0.84C266.89,493.03,267.77,492.24,268.51,491.22z M262.42,476.2    c1.15-0.76,2.04-1.64,2.67-2.65c0.63-1.01,0.95-2.05,0.95-3.12s-0.28-1.93-0.83-2.55c-0.55-0.62-1.3-0.94-2.25-0.94    c-0.96,0-1.71,0.31-2.25,0.94c-0.54,0.63-0.81,1.49-0.81,2.6c0,0.7,0.22,1.56,0.67,2.57S261.63,475.11,262.42,476.2z"></path>
		<path class="st2" d="M291.44,497.17v-33.18h8.51c3.62,0,6.26,0.74,7.93,2.23c1.67,1.49,2.5,3.83,2.5,7.03    c0,3.29-0.87,5.77-2.61,7.45c-1.74,1.68-4.29,2.52-7.67,2.52h-4.96v13.94H291.44z M295.14,479.87h4.87c2.24,0,3.89-0.54,4.94-1.61    c1.06-1.07,1.58-2.75,1.58-5.05c0-2.11-0.53-3.64-1.59-4.59c-1.06-0.95-2.79-1.42-5.17-1.42h-4.63V479.87z"></path>
		<path class="st2" d="M312.44,484.78c0-4.45,0.71-7.75,2.14-9.9c1.43-2.15,3.62-3.22,6.56-3.22c2.99,0,5.19,1.06,6.6,3.19    c1.42,2.13,2.12,5.44,2.12,9.93c0,4.5-0.7,7.8-2.11,9.9c-1.41,2.1-3.61,3.16-6.61,3.16c-3.02,0-5.22-1.04-6.61-3.13    C313.14,492.61,312.44,489.3,312.44,484.78z M316.15,484.78c0,3.71,0.38,6.32,1.14,7.83c0.76,1.52,2.05,2.27,3.86,2.27    c1.78,0,3.06-0.77,3.82-2.32s1.15-4.14,1.15-7.79c0-3.68-0.38-6.27-1.15-7.79s-2.04-2.27-3.82-2.27c-1.8,0-3.08,0.75-3.85,2.25    S316.15,481.07,316.15,484.78z"></path>
		<path class="st2" d="M334.46,497.17v-24.8h3.21v4.05c0.5-1.45,1.26-2.58,2.27-3.4c1.01-0.82,2.17-1.23,3.48-1.23    c0.39,0,0.69,0.01,0.89,0.02c0.21,0.01,0.41,0.04,0.59,0.06v3.71c-0.19-0.1-0.39-0.18-0.61-0.23c-0.22-0.05-0.47-0.08-0.74-0.08    c-1.78,0-3.17,0.59-4.16,1.77s-1.49,2.82-1.49,4.93v15.19H334.46z"></path>
		<path class="st2" d="M359.31,488.44l3.4-0.02c0,3-0.69,5.32-2.07,6.96s-3.33,2.46-5.84,2.46c-2.76,0-4.8-1.08-6.13-3.25    c-1.33-2.17-1.99-5.5-1.99-10c0-4.32,0.69-7.55,2.07-9.68s3.47-3.2,6.27-3.2c2.31,0,4.14,0.71,5.48,2.12    c1.34,1.41,2.01,3.34,2.01,5.78v0.52h-3.38c-0.07-1.74-0.45-3.06-1.12-3.96c-0.68-0.9-1.63-1.36-2.87-1.36    c-1.7,0-2.91,0.75-3.63,2.25s-1.09,4.05-1.09,7.66c0,3.65,0.37,6.23,1.1,7.75c0.73,1.52,1.95,2.27,3.66,2.27    c1.29,0,2.29-0.54,2.99-1.62S359.26,490.48,359.31,488.44z"></path>
		<path class="st2" d="M378.93,488.79h3.4c-0.03,2.93-0.7,5.17-2.01,6.72c-1.31,1.55-3.19,2.33-5.61,2.33    c-2.67,0-4.64-1.04-5.91-3.12s-1.91-5.31-1.91-9.67c0-4.63,0.64-8.01,1.91-10.16s3.27-3.22,6-3.22c2.57,0,4.49,0.91,5.74,2.74    c1.26,1.82,1.88,4.6,1.88,8.34c0,0.59,0,1.03-0.01,1.34s-0.02,0.58-0.03,0.82l-11.91,0.02v1.1c0,3.1,0.36,5.36,1.08,6.79    c0.72,1.42,1.86,2.13,3.43,2.13c1.22,0,2.19-0.54,2.9-1.61s1.07-2.52,1.07-4.36V488.79z M370.47,482.09h8.42v-0.67    c0-2.28-0.33-4-1-5.16s-1.67-1.73-3.01-1.73c-1.49,0-2.6,0.62-3.33,1.86C370.83,477.63,370.47,479.53,370.47,482.09z"></path>
		<path class="st2" d="M386.97,497.17v-33.18h3.45v33.18H386.97z"></path>
		<path class="st2" d="M411.75,497.21c-0.43,0.07-0.81,0.13-1.13,0.16c-0.32,0.04-0.62,0.05-0.89,0.05c-0.98,0-1.75-0.31-2.31-0.93    c-0.56-0.62-0.86-1.49-0.9-2.63c-0.53,1.26-1.3,2.23-2.31,2.91c-1.01,0.67-2.2,1.01-3.58,1.01c-1.8,0-3.19-0.6-4.19-1.81    c-1-1.21-1.5-2.9-1.5-5.08c0-2.14,0.46-3.77,1.39-4.89c0.93-1.12,2.93-2.2,6-3.23l0.06-0.02c2.53-0.85,3.79-1.84,3.79-2.97v-2.28    c0-1.02-0.29-1.76-0.87-2.23c-0.58-0.47-1.51-0.7-2.79-0.7c-1.24,0-2.15,0.32-2.76,0.97c-0.6,0.65-0.9,1.64-0.9,2.97v0.43h-3.25    c0.04-2.53,0.65-4.37,1.81-5.54c1.16-1.16,3-1.75,5.51-1.75c2.36,0,4.08,0.54,5.16,1.61c1.08,1.07,1.63,2.76,1.63,5.07v14.5    c0,0.65,0.12,1.11,0.34,1.39c0.23,0.28,0.6,0.42,1.12,0.42c0.1,0,0.26-0.02,0.47-0.06c0.03,0,0.06-0.01,0.09-0.02V497.21z     M406.27,483.79c-0.55,0.6-1.75,1.24-3.62,1.92c-0.16,0.06-0.27,0.1-0.34,0.13c-1.61,0.56-2.66,1.19-3.15,1.9    c-0.49,0.7-0.73,1.75-0.73,3.12c0,1.24,0.27,2.19,0.82,2.87c0.55,0.68,1.31,1.01,2.3,1.01c1.44,0,2.58-0.55,3.44-1.64    c0.85-1.09,1.28-2.56,1.28-4.39V483.79z"></path>
		<path class="st2" d="M415.28,468.49v-4.5h3.58v4.5H415.28z M415.28,497.17v-24.8h3.58v24.8H415.28z"></path>
		<path class="st2" d="M424.11,497.17v-24.8h3.25v3.08c0.6-1.21,1.42-2.11,2.46-2.71c1.03-0.6,2.29-0.9,3.77-0.9    c2.18,0,3.74,0.55,4.66,1.66c0.93,1.11,1.39,3.01,1.39,5.71v17.97h-3.49v-18.23c0-1.35-0.29-2.36-0.86-3.02    c-0.58-0.66-1.45-0.99-2.63-0.99c-1.55,0-2.78,0.49-3.7,1.46s-1.37,2.3-1.37,3.96v16.81H424.11z"></path>
		<path class="st2" d="M445.92,506.84h-2.52c0.67-1.29,1.3-2.58,1.88-3.86c0.57-1.28,1.11-2.59,1.62-3.92    c0.7-1.9,1.22-3.96,1.54-6.19s0.48-4.82,0.48-7.75c0-4.45-0.44-8.34-1.31-11.68c-0.88-3.33-2.28-6.49-4.2-9.46h2.52    c2.3,3.32,4.01,6.73,5.14,10.25s1.69,7.19,1.69,11.02c0,3.63-0.54,7.16-1.62,10.58C450.05,499.25,448.32,502.92,445.92,506.84z"></path>
	</g>
</g>
</svg>
